<?xml version="1.0" encoding="utf-8"?>
<!-- Generator: Adobe Illustrator 19.1.0, SVG Export Plug-In . SVG Version: 6.00 Build 0)  -->
<svg version="1.1" id="Layer_1" xmlns="http://www.w3.org/2000/svg" xmlns:xlink="http://www.w3.org/1999/xlink" x="0px" y="0px"
	 width="290.3px" height="65.2px" viewBox="0 0 290.3 65.2" enable-background="new 0 0 290.3 65.2" xml:space="preserve">
<g>
	<path d="M4.6,10.3c2.3-0.5,5.9-0.8,9.5-0.8c5.2,0,8.6,0.9,11.1,2.9c2.1,1.6,3.4,4,3.4,7.1c0,3.9-2.6,7.3-6.8,8.9v0.1
		c3.8,1,8.3,4.1,8.3,10.1c0,3.5-1.4,6.1-3.4,8.1c-2.8,2.6-7.4,3.8-14,3.8c-3.6,0-6.4-0.2-8.1-0.5V10.3z M9.8,26.9h4.7
		c5.5,0,8.8-2.9,8.8-6.8c0-4.7-3.6-6.6-8.9-6.6c-2.4,0-3.8,0.2-4.6,0.4V26.9z M9.8,46.3c1,0.2,2.5,0.2,4.4,0.2
		c5.4,0,10.4-2,10.4-7.9c0-5.5-4.7-7.8-10.4-7.8H9.8V46.3z"/>
	<path d="M36.9,30.2c0-3.4-0.1-6.4-0.2-9.1h4.6l0.2,5.7h0.2c1.3-3.9,4.5-6.4,8-6.4c0.6,0,1,0.1,1.5,0.2v5c-0.5-0.1-1.1-0.2-1.8-0.2
		c-3.7,0-6.4,2.8-7.1,6.8c-0.1,0.7-0.2,1.6-0.2,2.5v15.5h-5.2V30.2z"/>
	<path d="M72.3,50.2l-0.4-3.7h-0.2c-1.6,2.3-4.7,4.3-8.9,4.3c-5.9,0-8.9-4.1-8.9-8.3c0-7,6.2-10.9,17.5-10.8v-0.6
		c0-2.4-0.7-6.7-6.6-6.7c-2.7,0-5.5,0.8-7.6,2.2L56,23.1c2.4-1.6,5.9-2.6,9.5-2.6c8.9,0,11,6.1,11,11.9v10.9c0,2.5,0.1,5,0.5,7H72.3
		z M71.5,35.4c-5.8-0.1-12.3,0.9-12.3,6.5c0,3.4,2.3,5,5,5c3.8,0,6.2-2.4,7-4.9c0.2-0.5,0.3-1.1,0.3-1.7V35.4z"/>
	<path d="M85.1,29c0-3-0.1-5.5-0.2-7.9h4.7l0.3,4.8H90c1.4-2.8,4.8-5.5,9.6-5.5c4,0,10.3,2.4,10.3,12.4v17.3h-5.3V33.5
		c0-4.7-1.7-8.6-6.7-8.6c-3.5,0-6.2,2.5-7.1,5.4c-0.2,0.7-0.4,1.6-0.4,2.5v17.5h-5.3V29z"/>
	<path d="M143.5,7.6v35.1c0,2.6,0.1,5.5,0.2,7.5H139l-0.2-5h-0.1c-1.6,3.2-5.2,5.7-9.9,5.7c-7,0-12.4-5.9-12.4-14.8
		c-0.1-9.7,5.9-15.6,13-15.6c4.4,0,7.4,2.1,8.8,4.4h0.1V7.6H143.5z M138.2,33c0-0.7-0.1-1.6-0.2-2.2c-0.8-3.4-3.7-6.1-7.6-6.1
		c-5.5,0-8.7,4.8-8.7,11.2c0,5.9,2.9,10.7,8.6,10.7c3.5,0,6.8-2.3,7.7-6.3c0.2-0.7,0.2-1.4,0.2-2.3V33z"/>
	<path d="M152.5,9.8h5.2v36.1H175v4.4h-22.5V9.8z"/>
	<path d="M206,35.5c0,10.7-7.4,15.4-14.5,15.4c-7.9,0-13.9-5.8-13.9-14.9c0-9.7,6.4-15.4,14.4-15.4C200.4,20.5,206,26.6,206,35.5z
		 M183,35.8c0,6.4,3.7,11.2,8.8,11.2c5,0,8.8-4.7,8.8-11.3c0-4.9-2.5-11.2-8.7-11.2C185.7,24.5,183,30.2,183,35.8z"/>
	<path d="M237.7,21.2c-0.1,2.1-0.2,4.4-0.2,8V46c0,6.7-1.3,10.7-4.1,13.3c-2.8,2.6-6.9,3.5-10.6,3.5c-3.5,0-7.3-0.8-9.7-2.4l1.3-4
		c1.9,1.2,4.9,2.3,8.5,2.3c5.4,0,9.4-2.8,9.4-10.1v-3.2h-0.1c-1.6,2.7-4.7,4.9-9.2,4.9c-7.2,0-12.4-6.1-12.4-14.2
		c0-9.8,6.4-15.4,13.1-15.4c5,0,7.8,2.6,9.1,5h0.1l0.2-4.4H237.7z M232.3,32.6c0-0.9-0.1-1.7-0.3-2.4c-1-3.1-3.5-5.6-7.4-5.6
		c-5,0-8.6,4.3-8.6,11c0,5.7,2.9,10.4,8.6,10.4c3.2,0,6.2-2,7.3-5.4c0.3-0.9,0.4-1.9,0.4-2.8V32.6z"/>
	<path d="M272.5,35.5c0,10.7-7.4,15.4-14.5,15.4c-7.9,0-13.9-5.8-13.9-14.9c0-9.7,6.4-15.4,14.4-15.4
		C266.9,20.5,272.5,26.6,272.5,35.5z M249.5,35.8c0,6.4,3.7,11.2,8.8,11.2c5,0,8.8-4.7,8.8-11.3c0-4.9-2.5-11.2-8.7-11.2
		C252.2,24.5,249.5,30.2,249.5,35.8z"/>
	<path d="M288.8,30.9c0,3.4-2.7,6.1-6.2,6.1c-3.5,0-6.3-2.7-6.3-6.1c0-3.4,2.8-6.1,6.3-6.1C286.1,24.9,288.8,27.6,288.8,30.9z
		 M277.9,30.9c0,2.7,2,4.8,4.7,4.8c2.7,0,4.6-2.1,4.6-4.8c0-2.7-2-4.9-4.7-4.9S277.9,28.3,277.9,30.9z M281.6,34.1h-1.4v-6.1
		c0.6-0.1,1.3-0.2,2.3-0.2c1.1,0,1.7,0.2,2.1,0.4c0.3,0.3,0.6,0.7,0.6,1.3c0,0.7-0.5,1.2-1.3,1.4v0.1c0.6,0.2,0.9,0.7,1.1,1.5
		c0.2,0.9,0.3,1.3,0.4,1.5H284c-0.2-0.2-0.3-0.8-0.5-1.5c-0.1-0.7-0.5-1-1.3-1h-0.7V34.1z M281.6,30.7h0.7c0.8,0,1.4-0.3,1.4-0.9
		c0-0.6-0.4-0.9-1.3-0.9c-0.4,0-0.6,0-0.8,0.1V30.7z"/>
</g>
</svg>
