<svg xmlns="http://www.w3.org/2000/svg" viewBox="0 0 26 26">
  <path d="M13 0C9.4 0 6.2 1.5 3.8 3.8 1.4 6.2 0 9.4 0 13s1.5 6.8 3.8 9.2C6.2 24.6 9.4 26 13 26s6.8-1.5 9.2-3.8c2.4-2.4 3.8-5.6 3.8-9.2s-1.5-6.8-3.8-9.2C19.8 1.5 16.6 0 13 0zm4.3 20.1c.2.2.2.5 0 .7l-.1.1c-1.3.7-2.7 1.1-4.2 1.1-2.5 0-4.7-1-6.4-2.6C5 17.8 4 15.5 4 13c0-1.5.4-2.9 1.1-4.2l.1-.1c.2-.2.5-.2.7 0l5.7 5.7 5.7 5.7zM22 13c0 1.5-.4 2.9-1.1 4.2l-.1.1c-.2.2-.5.2-.7 0l-5.7-5.7-5.7-5.7c-.2-.2-.2-.5 0-.7l.1-.1C10.1 4.4 11.5 4 13 4c2.5 0 4.7 1 6.4 2.6C21 8.3 22 10.5 22 13z"/>
</svg>