<?xml version="1.0" encoding="utf-8"?>
<!-- Generator: Adobe Illustrator 19.1.0, SVG Export Plug-In . SVG Version: 6.00 Build 0)  -->
<svg version="1.1" id="Layer_1" xmlns="http://www.w3.org/2000/svg" xmlns:xlink="http://www.w3.org/1999/xlink" x="0px" y="0px"
	 width="26px" height="26px" viewBox="-34 36 26 26" style="enable-background:new -34 36 26 26;" xml:space="preserve">
<path d="M-21,37.7c-3.1,0-5.9,1.3-8,3.3c-2.1,2.1-3.3,4.9-3.3,8s1.3,5.9,3.3,8c2.1,2.1,4.9,3.3,8,3.3s5.9-1.3,8-3.3
	c2.1-2.1,3.3-4.9,3.3-8c0-3.1-1.3-5.9-3.3-8C-15.1,39-17.9,37.7-21,37.7z M-17.3,55.2c0.2,0.2,0.2,0.4,0,0.6l-0.1,0.1
	c-1.1,0.6-2.3,1-3.7,1c-2.2,0-4.1-0.9-5.6-2.3c-1.4-1.4-2.3-3.4-2.3-5.6c0-1.3,0.3-2.5,1-3.7l0.1-0.1c0.2-0.2,0.4-0.2,0.6,0l5,5
	C-22.2,50.2-17.3,55.2-17.3,55.2z M-13.2,49c0,1.3-0.3,2.5-1,3.7l-0.1,0.1c-0.2,0.2-0.4,0.2-0.6,0l-5-5l-5-5c-0.2-0.2-0.2-0.4,0-0.6
	l0.1-0.1c1.1-0.6,2.3-1,3.7-1c2.2,0,4.1,0.9,5.6,2.3C-14,44.9-13.2,46.8-13.2,49z"/>
</svg>
