<?xml version="1.0" encoding="utf-8"?>
<!-- Generator: Adobe Illustrator 19.1.0, SVG Export Plug-In . SVG Version: 6.00 Build 0)  -->
<svg version="1.1" id="Layer_1" xmlns="http://www.w3.org/2000/svg" xmlns:xlink="http://www.w3.org/1999/xlink" x="0px" y="0px"
	 width="40px" height="40px" viewBox="0 0 40 40" style="enable-background:new 0 0 40 40;" xml:space="preserve">
<style type="text/css">
	.st0{fill:none;stroke:#000000;stroke-miterlimit:10;}
</style>
<polygon class="st0" points="20.1,10.6 29.9,20.5 17.9,32.5 5.4,35.1 8,22.7 "/>
<line class="st0" x1="8" y1="22.7" x2="17.9" y2="32.5"/>
<path d="M31.4,19.8L31.4,19.8c-0.3,0.3-0.8,0.3-1.1,0l-9.7-9.7c-0.3-0.3-0.3-0.8,0-1.1l0,0c0.3-0.3,0.8-0.3,1.1,0l9.7,9.7
	C31.7,18.9,31.7,19.4,31.4,19.8z"/>
<path d="M33,18.3L33,18.3c-0.3,0.3-0.8,0.3-1.1,0l-9.7-9.7c-0.3-0.3-0.3-0.8,0-1.1l0,0c0.3-0.3,0.8-0.3,1.1,0l9.7,9.7
	C33.3,17.5,33.3,18,33,18.3z"/>
<path class="st0" d="M35.4,16.4L35.4,16.4c-0.8,0.8-2.1,0.8-2.8,0l-8.3-8c-0.8-0.8-0.8-2.1,0-2.8l0,0c0.8-0.8,2.1-0.8,2.8,0l8.3,8
	C36.2,14.3,36.2,15.6,35.4,16.4z"/>
<polygon points="6.3,31 9.4,34.3 5.4,34.9 "/>
<line class="st0" x1="22.7" y1="13.2" x2="10.6" y2="25.3"/>
<line class="st0" x1="26.8" y1="17.4" x2="14.8" y2="29.4"/>
</svg>
