<?xml version="1.0" encoding="utf-8"?>
<!-- Generator: Adobe Illustrator 19.1.0, SVG Export Plug-In . SVG Version: 6.00 Build 0)  -->
<svg version="1.1" id="Layer_1" xmlns="http://www.w3.org/2000/svg" xmlns:xlink="http://www.w3.org/1999/xlink" x="0px" y="0px"
	 width="24px" height="24px" viewBox="-35 37 24 24" style="enable-background:new -35 37 24 24;" xml:space="preserve">
<path d="M-14.2,47.4H-21c-0.2,0-0.4-0.2-0.4-0.4v-6.8c0-0.5-0.3-0.8-0.8-0.8h-1.6c-0.5,0-0.8,0.3-0.8,0.8V47c0,0.2-0.2,0.4-0.4,0.4
	h-6.8c-0.5,0-0.8,0.3-0.8,0.8v1.6c0,0.5,0.3,0.8,0.8,0.8h6.8c0.2,0,0.4,0.2,0.4,0.4v6.8c0,0.5,0.3,0.8,0.8,0.8h1.6
	c0.5,0,0.8-0.3,0.8-0.8V51c0-0.2,0.2-0.4,0.4-0.4h6.8c0.5,0,0.8-0.3,0.8-0.8v-1.6C-13.4,47.7-13.7,47.4-14.2,47.4z"/>
</svg>
