<?xml version="1.0" encoding="utf-8"?>
<!-- Generator: Adobe Illustrator 19.1.0, SVG Export Plug-In . SVG Version: 6.00 Build 0)  -->
<svg version="1.1" id="Layer_1" xmlns="http://www.w3.org/2000/svg" xmlns:xlink="http://www.w3.org/1999/xlink" x="0px" y="0px"
	 width="32px" height="32px" viewBox="0 0 32 32" style="enable-background:new 0 0 32 32;" xml:space="preserve">
<style type="text/css">
	.st0{fill:#FFFFFF;stroke:#000000;stroke-miterlimit:10;}
	.st1{fill:none;stroke:#000000;stroke-miterlimit:10;}
</style>
<path class="st0" d="M8.4,7.9h15.3c0.5,0,1,0.4,1,1l-1.3,17.8c0,0.5-0.4,1-1,1H9.7c-0.5,0-1-0.4-1-1L7.4,8.8
	C7.4,8.3,7.8,7.9,8.4,7.9z"/>
<path class="st0" d="M17.2,8.9h-2.1c-0.7,0-1.2-0.5-1.2-1.2v0c0-0.7,0.5-1.2,1.2-1.2h2.1c0.7,0,1.2,0.5,1.2,1.2v0
	C18.4,8.3,17.8,8.9,17.2,8.9z"/>
<path class="st0" d="M25.5,9.9H6.5c-0.3,0-0.6-0.3-0.6-0.6V8.4c0-0.3,0.3-0.6,0.6-0.6h19.1c0.3,0,0.6,0.3,0.6,0.6v0.9
	C26.1,9.6,25.9,9.9,25.5,9.9z"/>
<line class="st1" x1="11.1" y1="11.3" x2="12.1" y2="25.2"/>
<path class="st1" d="M21.2,11.3"/>
<line class="st1" x1="21.1" y1="11.3" x2="20.1" y2="25.2"/>
<line class="st1" x1="16.1" y1="11.3" x2="16.1" y2="25.2"/>
</svg>
