<svg xmlns="http://www.w3.org/2000/svg" width="32" height="32" viewBox="-31 33 32 32"><path d="M-22.6 40.9h15.3c.5 0 1 .4 1 1l-1.3 17.8c0 .5-.4 1-1 1h-12.7c-.5 0-1-.4-1-1l-1.3-17.9c0-.5.4-.9 1-.9z"/><path fill="#fff" d="M-21.7 42h13.6c.4 0 .9.3.9.9l-1.2 16.2c0 .4-.4.8-.9.8h-11.4c-.4 0-.9-.3-.9-.9l-1.1-16.2c.1-.4.5-.8 1-.8z"/><path d="M-13.8 41.9h-2.1c-.7 0-1.2-.5-1.2-1.2s.5-1.2 1.2-1.2h2.1c.7 0 1.2.5 1.2 1.2 0 .6-.6 1.2-1.2 1.2z"/><path d="M-5.5 42.9h-19c-.3 0-.6-.3-.6-.6v-.9c0-.3.3-.6.6-.6h19.1c.3 0 .6.3.6.6v.9c-.1.3-.3.6-.7.6z"/><path fill="#fff" d="M-5.9 42.2h-18.2c-.1 0-.1-.1-.1-.2v-.3c0-.1.1-.2.1-.2h18.2c.1 0 .1.1.1.2v.3c0 .1 0 .2-.1.2z"/><path d="M-14.9 45.9h.3v10.8h-.3zM-17.6 57.1h-.3l-1-11.2h.3zM-11.6 57.1h-.3l1-11.2h.3z"/></svg>