<?xml version="1.0" encoding="utf-8"?>
<!-- Generator: Adobe Illustrator 19.1.0, SVG Export Plug-In . SVG Version: 6.00 Build 0)  -->
<svg version="1.1" id="Layer_1" xmlns="http://www.w3.org/2000/svg" xmlns:xlink="http://www.w3.org/1999/xlink" x="0px" y="0px"
	 width="32px" height="32px" viewBox="-31 33 32 32" style="enable-background:new -31 33 32 32;" xml:space="preserve">
<style type="text/css">
	.st0{fill:#FFFFFF;stroke:#000000;stroke-miterlimit:10;}
	.st1{fill:#231F20;stroke:#000000;stroke-miterlimit:10;}
</style>
<path class="st0" d="M-22.6,40.9h15.3c0.5,0,1,0.4,1,1l-1.3,17.8c0,0.5-0.4,1-1,1h-12.7c-0.5,0-1-0.4-1-1l-1.3-17.9
	C-23.6,41.3-23.2,40.9-22.6,40.9z"/>
<path class="st1" d="M-13.8,41.9h-2.1c-0.7,0-1.2-0.5-1.2-1.2l0,0c0-0.7,0.5-1.2,1.2-1.2h2.1c0.7,0,1.2,0.5,1.2,1.2l0,0
	C-12.6,41.3-13.2,41.9-13.8,41.9z"/>
<path class="st0" d="M-5.5,42.9h-19c-0.3,0-0.6-0.3-0.6-0.6v-0.9c0-0.3,0.3-0.6,0.6-0.6h19.1c0.3,0,0.6,0.3,0.6,0.6v0.9
	C-4.9,42.6-5.1,42.9-5.5,42.9z"/>
<line class="st1" x1="-19.9" y1="44.3" x2="-18.9" y2="58.2"/>
<path class="st1" d="M-9.8,44.3"/>
<line class="st1" x1="-9.9" y1="44.3" x2="-10.9" y2="58.2"/>
<line class="st1" x1="-14.9" y1="44.3" x2="-14.9" y2="58.2"/>
</svg>
