<?xml version="1.0" encoding="utf-8"?>
<!-- Generator: Adobe Illustrator 19.1.0, SVG Export Plug-In . SVG Version: 6.00 Build 0)  -->
<svg version="1.1" id="Capa_1" xmlns="http://www.w3.org/2000/svg" xmlns:xlink="http://www.w3.org/1999/xlink" x="0px" y="0px"
	 width="55px" height="55px" viewBox="-278 369 55 55" style="enable-background:new -278 369 55 55;" xml:space="preserve">
<g>
	<path d="M-232.5,378.5c-3.8-3.8-10.1-3.8-13.9,0l-7,7c-0.6,0.6-0.6,1.6,0,2.1c0.6,0.6,1.6,0.6,2.1,0l7-7c1.3-1.3,3-2,4.8-2
		c1.8,0,3.5,0.7,4.8,2c1.3,1.3,2,3,2,4.8c0,1.8-0.7,3.5-2,4.8l-9.1,9.1c-2.7,2.7-7,2.7-9.7,0c-0.6-0.6-1.6-0.6-2.1,0
		c-0.6,0.6-0.6,1.6,0,2.1c1.9,1.9,4.4,2.9,7,2.9s5.1-1,7-2.9l9.1-9.1c1.9-1.9,2.9-4.3,2.9-7C-229.7,382.9-230.7,380.4-232.5,378.5z"
		/>
	<path d="M-250.8,406.4l-5.9,5.9c-1.3,1.3-3,2-4.8,2c-1.8,0-3.5-0.7-4.8-2c-2.7-2.7-2.7-7,0-9.7l8.6-8.6c1.3-1.3,3-2,4.8-2
		c1.8,0,3.5,0.7,4.8,2c0.6,0.6,1.6,0.6,2.1,0c0.6-0.6,0.6-1.6,0-2.1c-3.8-3.8-10.1-3.8-13.9,0l-8.6,8.6c-1.9,1.9-2.9,4.3-2.9,7
		c0,2.6,1,5.1,2.9,7c1.9,1.9,4.3,2.9,7,2.9c2.6,0,5.1-1,7-2.9l5.9-5.9c0.6-0.6,0.6-1.6,0-2.1C-249.2,405.9-250.2,405.9-250.8,406.4z
		"/>
</g>
</svg>
