<svg xmlns="http://www.w3.org/2000/svg" width="32" height="32" viewBox="16 48 32 32"><path d="M41.3 52.9h-.9V52c0-1.2-.9-2.1-2.1-2.1-1.1 0-2.1 1-2.1 2.1v.9h-2.1V52c0-1.2-.9-2.1-2.1-2.1s-2 .9-2 2.1v.9h-2.1V52c0-1.2-.9-2.1-2.1-2.1-1.1 0-2.1 1-2.1 2.1v.9h-1.1c-1.8 0-3.3 1.5-3.3 3.3v18.6c0 1.8 1.5 3.3 3.3 3.3h18.6c1.8 0 3.3-1.5 3.3-3.3V56.2c.1-1.8-1.4-3.3-3.2-3.3zm-3.8-.9c0-.5.4-1 .9-1s.9.4.9 1v3.8c0 .5-.4 1-.9 1s-.9-.4-.9-1V52zm-6.3 0c0-.5.4-1 .9-1s.9.4.9 1v3.8c0 .5-.4 1-.9 1s-.9-.4-.9-1V52zm-6.3 0c0-.5.4-1 .9-1s.9.4.9 1v3.8c0 .5-.4 1-.9 1s-.9-.4-.9-1V52zm17.8 22.8c0 .7-.6 1.4-1.4 1.4H22.7c-.7 0-1.4-.6-1.4-1.4v-17h21.3v17z"/><path d="M23.1 61.6h3.6v3.2h-3.6v-3.2zm4.7 0h3.6v3.2h-3.6v-3.2zm4.8 0h3.6v3.2h-3.6v-3.2zm4.8 0H41v3.2h-3.6v-3.2zm-14.3 4.2h3.6V69h-3.6v-3.2zm4.7 0h3.6V69h-3.6v-3.2zm4.8 0h3.6V69h-3.6v-3.2zm4.8 0H41V69h-3.6v-3.2zM23.1 70h3.6v3.2h-3.6V70zm4.7 0h3.6v3.2h-3.6V70zm4.8 0h3.6v3.2h-3.6V70zm4.8 0H41v3.2h-3.6V70z"/></svg>
