<svg height="512pt" viewBox="-36 0 512 512.0015" width="512pt" xmlns="http://www.w3.org/2000/svg"><path d="m285.859375 358.808594c-13.734375 0-24.910156 11.175781-24.910156 24.910156s11.175781 24.910156 24.910156 24.910156 24.910156-11.175781 24.910156-24.910156-11.175781-24.910156-24.910156-24.910156zm0 34.816406c-5.464844 0-9.90625-4.441406-9.90625-9.90625 0-5.460938 4.441406-9.90625 9.90625-9.90625 5.460937 0 9.90625 4.445312 9.90625 9.90625 0 5.464844-4.445313 9.90625-9.90625 9.90625zm0 0"/><path d="m191.882812 159.90625c-2.929687-2.929688-7.679687-2.929688-10.609374 0-2.929688 2.929688-2.929688 7.679688 0 10.609375l7.710937 7.707031c1.464844 1.464844 3.382813 2.199219 5.300781 2.199219 1.921875 0 3.839844-.734375 5.304688-2.199219 2.929687-2.929687 2.929687-7.679687 0-10.605468zm0 0"/><path d="m277.066406 74.722656c-2.929687-2.929687-7.679687-2.929687-10.609375 0-2.929687 2.929688-2.929687 7.679688 0 10.609375 0 0 7.703125 7.703125 7.710938 7.707031 2.820312 2.824219 7.664062 2.941407 10.605469 0 2.929687-2.925781 2.929687-7.675781 0-10.605468zm0 0"/><path d="m246.351562 111.796875c-4.136718.277344-7.261718 3.851563-6.980468 7.984375.226562 3.382812-1.117188 6.792969-3.683594 9.359375s-5.980469 3.90625-9.355469 3.679687c-4.128906-.277343-7.710937 2.847657-7.988281 6.980469-.277344 4.132813 2.851562 7.710938 6.984375 7.988281.582031.039063 1.160156.058594 1.742187.058594 7.097657 0 14.023438-2.898437 19.226563-8.101562 5.628906-5.628906 8.558594-13.269532 8.039063-20.96875-.277344-4.132813-3.859376-7.257813-7.984376-6.980469zm0 0"/><path d="m19.3125 355.550781h39.714844c4.144531 0 7.503906-3.359375 7.503906-7.5 0-4.144531-3.359375-7.503906-7.503906-7.503906h-39.714844c-10.648438 0-19.3125 8.664063-19.3125 19.3125v21.671875c0 10.648438 8.664062 19.3125 19.3125 19.3125h174.855469c-2.085938 7.8125-3.207031 16.019531-3.207031 24.484375v2.652344h-110.222657c-37.292969 0-67.628906 30.339843-67.628906 67.628906 0 9.039063 7.351563 16.390625 16.386719 16.390625h395c9.039062 0 16.390625-7.351562 16.390625-16.390625 0-34.753906-26.355469-63.457031-60.128907-67.203125v-3.078125c0-17.144531-4.570312-33.242187-12.554687-47.136719 24.039063-32.488281 37.226563-72.496094 37.226563-113.261718 0-41.917969-13.359376-81.695313-38.636719-115.027344-9.386719-12.378906-20.324219-23.566406-32.558594-33.386719 0 0 8.0625-8.0625 8.066406-8.066406 11.589844-11.589844 13.636719-30.28125 4.738281-44.066407 0 0 10.957032-10.957031 10.96875-10.96875 7.480469-7.480468 7.46875-19.957031 0-27.425781 0 0-20.367187-20.367187-20.382812-20.382812-7.476562-7.476563-19.953125-7.46875-27.425781 0l-10.96875 10.96875c-5.644531-3.644531-12.21875-5.605469-19.097657-5.605469-9.433593 0-18.300781 3.671875-24.96875 10.339844l-142.65625 142.660156c-7.746093-3.460938-17.164062-2.035156-23.511718 4.3125l-18.808594 18.808594c-8.21875 8.21875-8.21875 21.589844 0 29.808594l36.769531 36.769531c2.929688 2.929687 7.679688 2.929687 10.609375 0 2.929688-2.929688 2.929688-7.679688 0-10.605469l-36.773437-36.773438c-2.367188-2.367187-2.367188-6.21875 0-8.589843l18.8125-18.8125c2.367187-2.367188 6.222656-2.367188 8.589843 0l76.53125 76.53125c2.367188 2.371093 2.367188 6.222656 0 8.589843 0 0-18.761718 18.761719-18.8125 18.8125-2.34375 2.34375-6.257812 2.335938-8.589843 0l-19.210938-19.207031c-2.929687-2.929687-7.679687-2.929687-10.605469 0-2.929687 2.929688-2.929687 7.679688 0 10.605469 0 0 19.191407 19.195312 19.207032 19.210938 8.125 8.125 21.6875 8.117187 29.804687 0l18.8125-18.8125c6.347657-6.347657 7.769531-15.761719 4.3125-23.507813l63.304688-63.304687c9.4375 5.90625 17.824219 13.527343 24.46875 22.289062 12.035156 15.871094 18.398437 34.835938 18.398437 54.835938 0 24.945312-10.261718 48.804687-28.238281 65.863281-12.25 1.066406-23.84375 4.464843-34.328125 9.757812h-154.21875c-4.140625 0-7.5 3.359375-7.5 7.5 0 4.144531 3.359375 7.5 7.5 7.5h132.503906c-8.742187 8.058594-15.910156 17.734375-21.121094 28.507813-.039062.078125-.078124.15625-.113281.234375-.25.519531-.519531 1.027343-.757812 1.550781h-180.230469c-2.375 0-4.308594-1.933594-4.308594-4.308594v-21.675781c0-2.375 1.933594-4.308594 4.308594-4.308594zm301.492188-339.335937c1.703124-1.703125 4.515624-1.695313 6.210937 0 0 0 20.355469 20.355468 20.382813 20.382812 1.703124 1.703125 1.699218 4.507813 0 6.210938l-10.402344 10.398437-26.589844-26.589843s10.386719-10.386719 10.398438-10.402344zm-130.777344 223.292968-65.921875-65.925781s141.597656-141.59375 141.664062-141.664062c7.832031-7.828125 20.898438-7.824219 28.722657 0 0 0 37.167968 37.167969 37.199218 37.199219 7.832032 7.832031 7.824219 20.902343 0 28.722656zm130.789062 25.421876c0-23.304688-7.414062-45.398438-21.445312-63.898438-7.050782-9.300781-15.777344-17.5-25.574219-24.078125l49.777344-49.773437c11.796875 9.289062 22.292969 19.960937 31.261719 31.789062 23.285156 30.703125 35.59375 67.34375 35.59375 105.960938 0 36.378906-10.773438 70.792968-31.25 100.140624-11.851563-14.4375-27.53125-24.898437-45.066407-30.347656-5.339843-1.65625-16.46875-3.566406-16.527343-3.574218 14.914062-18.625 23.230468-41.984376 23.230468-66.21875zm-114.855468 160.398437c0-42.566406 33.457031-77.453125 75.453124-79.769531 6.921876-.378906 13.898438.132812 20.683594 1.53125 36.296875 7.527344 63.660156 39.746094 63.660156 78.234375v2.65625h-159.796874zm167.296874 17.65625c29.019532 0 52.628907 23.609375 52.628907 52.625 0 .765625-.625 1.390625-1.390625 1.390625h-395c-.765625 0-1.386719-.625-1.386719-1.390625 0-29.015625 23.609375-52.625 52.628906-52.625zm0 0"/></svg>