<svg xmlns="http://www.w3.org/2000/svg" width="40" height="40" viewBox="-27 29 40 40"><path d="M-22.2 64.7l.6-2.9 2.2-10.4L-7 39c-.1-.1-.1-.3-.1-.5 0-.3.1-.7.4-.9.3-.3.8-.4 1.3-.3-.1-.4 0-.9.3-1.2.3-.3.9-.5 1.4-.3 0-.6.3-1.2.8-1.6.5-.5 1.1-.7 1.8-.7s1.2.3 1.7.8l8.3 8c.5.4.7 1 .8 1.6 0 .7-.2 1.4-.7 1.9-.5.5-1.2.8-1.9.7h-.2c.1.4 0 .9-.3 1.2-.6.3-1.1.4-1.5.3.1.4-.1.8-.3 1.1v.1c-.3.3-.7.4-1.1.3L-8.9 62l-7.8 1.6-1.4.3-4.1.8zm2-4.9l2.7 2.9 7.3-1.5-8.6-8.5-1.4 7.1zm8.7-1.4l2.4 2.4L2.2 49.5l-2.4-2.4-11.3 11.3zm-4.2-4.1l3.5 3.4L-.9 46.4l-3.4-3.5-11.4 11.4zm-2.6-2.6l1.9 1.9L-5 42.2l-1.9-1.9-11.4 11.4zm12.5-13.4c-.1 0-.1 0-.2.1s-.1.2-.1.2 0 .1.1.2l9.7 9.7c.1.1.2.1.4 0 .1-.2.1-.3.1-.4l-9.8-9.8h-.2zm1.5-1.5c-.1 0-.1 0-.2.1s-.1.3 0 .4L5.2 47c.1.1.3.1.4 0 .1-.1.1-.3 0-.4l-9.7-9.7c0-.1-.1-.1-.2-.1zm3-2.3c-.4 0-.8.2-1.1.5-.3.3-.4.6-.5 1 0 .4.2.8.5 1.1l8.3 8c.3.3.6.4 1 .5.4 0 .8-.2 1.1-.5.3-.3.5-.7.5-1.1 0-.4-.2-.7-.4-.9l-8.3-8c-.3-.4-.6-.6-1.1-.6.1 0 .1 0 0 0z"/></svg>