<svg xmlns="http://www.w3.org/2000/svg" width="32" height="32" viewBox="0 0 32 32">
<path d="M6.1,4.1h19.8c0.6,0,1.3,0.5,1.3,1.3l-1.7,23c0,0.6-0.5,1.3-1.3,1.3H7.8c-0.6,0-1.3-0.5-1.3-1.3L4.8,5.3
	C4.8,4.6,5.3,4.1,6.1,4.1z"/>
<path fill="#fff" d="M7.3,5.5h17.6c0.5,0,1.2,0.4,1.2,1.2l-1.6,20.9c0,0.5-0.5,1-1.2,1H8.6c-0.5,0-1.2-0.4-1.2-1.2L6,6.6
	C6.1,6,6.6,5.5,7.3,5.5z"/>
<path d="M17.5,5.4h-2.7c-0.9,0-1.6-0.6-1.6-1.6s0.6-1.6,1.6-1.6h2.7c0.9,0,1.6,0.6,1.6,1.6C19,4.6,18.3,5.4,17.5,5.4z"/>
<path d="M28.2,6.7H3.7c-0.4,0-0.8-0.4-0.8-0.8V4.8C2.9,4.4,3.3,4,3.7,4h24.7c0.4,0,0.8,0.4,0.8,0.8v1.2C29,6.3,28.7,6.7,28.2,6.7z"
	/>
<path fill="#fff" d="M27.7,5.8H4.2C4,5.8,4,5.7,4,5.5V5.1C4,5,4.2,4.9,4.2,4.9h23.5c0.1,0,0.1,0.1,0.1,0.3v0.4
	C27.8,5.7,27.8,5.8,27.7,5.8z"/>
<path d="M11.6,25.1h-1l-0.3-14.5h1L11.6,25.1z M20.3,25.1h1l0.3-14.5h-1L20.3,25.1z M16.3,10.6h-1v14.5h1V10.6z"/>
</svg>
