<svg xmlns="http://www.w3.org/2000/svg" width="55" height="55" viewBox="-278 369 55 55"><path d="M-232.5 378.5c-3.8-3.8-10.1-3.8-13.9 0l-7 7c-.6.6-.6 1.6 0 2.1.6.6 1.6.6 2.1 0l7-7c1.3-1.3 3-2 4.8-2 1.8 0 3.5.7 4.8 2 1.3 1.3 2 3 2 4.8 0 1.8-.7 3.5-2 4.8l-9.1 9.1c-2.7 2.7-7 2.7-9.7 0-.6-.6-1.6-.6-2.1 0-.6.6-.6 1.6 0 2.1 1.9 1.9 4.4 2.9 7 2.9s5.1-1 7-2.9l9.1-9.1c1.9-1.9 2.9-4.3 2.9-7-.1-2.4-1.1-4.9-2.9-6.8z"/><path d="M-250.8 406.4l-5.9 5.9c-1.3 1.3-3 2-4.8 2-1.8 0-3.5-.7-4.8-2-2.7-2.7-2.7-7 0-9.7l8.6-8.6c1.3-1.3 3-2 4.8-2 1.8 0 3.5.7 4.8 2 .6.6 1.6.6 2.1 0 .6-.6.6-1.6 0-2.1-3.8-3.8-10.1-3.8-13.9 0l-8.6 8.6c-1.9 1.9-2.9 4.3-2.9 7 0 2.6 1 5.1 2.9 7 1.9 1.9 4.3 2.9 7 2.9 2.6 0 5.1-1 7-2.9l5.9-5.9c.6-.6.6-1.6 0-2.1-.6-.6-1.6-.6-2.2-.1z"/></svg>