<svg xmlns="http://www.w3.org/2000/svg" viewBox="0 0 493.258 493.258">
	<path d="M131.564 219.258h230.13c9.314 0 17.857-5.16 22.203-13.389 4.34-8.246 3.769-18.193-1.494-25.895L265.92 9.772C261.75 3.68 254.846.033 247.461 0c-7.377-.018-14.303 3.584-18.507 9.658L110.935 179.863c-5.319 7.668-5.938 17.664-1.607 25.941 4.331 8.263 12.897 13.454 22.236 13.454zM361.694 273.998h-230.13c-9.339 0-17.905 5.193-22.236 13.455-4.331 8.277-3.711 18.273 1.607 25.939l118.019 170.205c4.204 6.074 11.13 9.676 18.507 9.66 7.385-.031 14.289-3.682 18.459-9.772L382.403 313.28a25.1188 25.1188 0 0 0 1.494-25.895c-4.346-8.227-12.889-13.387-22.203-13.387z"/>
</svg>