<svg xmlns="http://www.w3.org/2000/svg" width="26" height="26" viewBox="-34 36 26 26"><path d="M-21 37.7c-3.1 0-5.9 1.3-8 3.3-2.1 2.1-3.3 4.9-3.3 8s1.3 5.9 3.3 8c2.1 2.1 4.9 3.3 8 3.3s5.9-1.3 8-3.3c2.1-2.1 3.3-4.9 3.3-8 0-3.1-1.3-5.9-3.3-8-2.1-2-4.9-3.3-8-3.3zm3.7 17.5c.2.2.2.4 0 .6l-.1.1c-1.1.6-2.3 1-3.7 1-2.2 0-4.1-.9-5.6-2.3-1.4-1.4-2.3-3.4-2.3-5.6 0-1.3.3-2.5 1-3.7l.1-.1c.2-.2.4-.2.6 0l5 5c.1 0 5 5 5 5zm4.1-6.2c0 1.3-.3 2.5-1 3.7l-.1.1c-.2.2-.4.2-.6 0l-5-5-5-5c-.2-.2-.2-.4 0-.6l.1-.1c1.1-.6 2.3-1 3.7-1 2.2 0 4.1.9 5.6 2.3 1.5 1.5 2.3 3.4 2.3 5.6z"/></svg>