<?xml version="1.0" encoding="utf-8"?>
<!-- Generator: Adobe Illustrator 19.1.0, SVG Export Plug-In . SVG Version: 6.00 Build 0)  -->
<svg version="1.1" id="Layer_1" xmlns="http://www.w3.org/2000/svg" xmlns:xlink="http://www.w3.org/1999/xlink" x="0px" y="0px"
	 width="128px" height="128px" viewBox="0 0 128 128" enable-background="new 0 0 128 128" xml:space="preserve">
<rect x="0" width="128" height="128"/>
<g>
	<path fill="#FFFFFF" d="M22.3,29.4v37.8c0,14.3,6.3,20.4,14.9,20.4c9.5,0,15.5-6.3,15.5-20.4V29.4H61v37.2
		c0,19.6-10.3,27.7-24.2,27.7c-13.1,0-22.9-7.5-22.9-27.3V29.4H22.3z"/>
	<path fill="#FFFFFF" d="M75,59.8c0-4.7-0.1-8.6-0.4-12.4H82l0.5,7.6h0.2c2.3-4.4,7.6-8.6,15.2-8.6c6.3,0,16.2,3.8,16.2,19.5v27.4
		h-8.3V66.8c0-7.4-2.7-13.5-10.6-13.5c-5.5,0-9.8,3.9-11.2,8.5c-0.4,1-0.6,2.5-0.6,3.9v27.6H75V59.8z"/>
</g>
<rect x="7.4" y="103.2" fill="#FFFFFF" width="113.1" height="4.1"/>
</svg>
